<svg width="20" height="20" viewBox="0 0 20 20" fill="none" xmlns="http://www.w3.org/2000/svg">
<g clip-path="url(#clip0)">
<path d="M11.0606 7.48175C10.8534 7.39119 10.6077 7.42741 10.4375 7.57726C10.2482 7.74383 10.187 8.02268 10.2895 8.25302C10.3825 8.4619 10.5949 8.60095 10.8238 8.60095C11.115 8.60095 11.3685 8.37676 11.4041 8.08782C11.4352 7.83587 11.2938 7.58361 11.0606 7.48175Z" fill="#126BC0"/>
<path d="M7.93551 8.21305C8.01655 8.44281 8.24215 8.601 8.48556 8.601C8.76175 8.601 9.00415 8.40032 9.05899 8.13048C9.10776 7.89046 8.99487 7.64066 8.78604 7.51475C8.57685 7.3886 8.3037 7.40988 8.11487 7.56406C7.92498 7.71909 7.85442 7.98305 7.93551 8.21305Z" fill="#126BC0"/>
<path d="M6.14607 8.60101C6.42195 8.60101 6.66435 8.40005 6.71912 8.13049C6.76785 7.89063 6.65496 7.64063 6.44616 7.51475C6.23667 7.38841 5.96421 7.41012 5.77499 7.56407C5.58491 7.71871 5.51466 7.9834 5.59567 8.21309C5.67679 8.44313 5.90254 8.60101 6.14607 8.60101Z" fill="#126BC0"/>
<path d="M11.0604 5.14299C10.8537 5.05185 10.6073 5.08924 10.4374 5.23846C10.2476 5.40504 10.1874 5.68357 10.2894 5.91407C10.3818 6.12306 10.595 6.26215 10.8236 6.26215C11.1148 6.26215 11.3683 6.03808 11.404 5.74902C11.4351 5.49645 11.2934 5.24567 11.0604 5.14299Z" fill="#126BC0"/>
<path d="M8.48553 6.26215C8.76177 6.26215 9.00412 6.0615 9.05897 5.79163C9.10774 5.55165 8.99484 5.30181 8.78601 5.17589C8.57679 5.04974 8.30372 5.07099 8.11485 5.2252C7.925 5.38024 7.8544 5.64423 7.93552 5.87423C8.01653 6.104 8.24212 6.26215 8.48553 6.26215Z" fill="#126BC0"/>
<path d="M6.14608 6.2631C6.42204 6.2631 6.66436 6.06211 6.71913 5.79258C6.76786 5.55275 6.65496 5.30272 6.44617 5.17684C6.23699 5.05073 5.9638 5.07198 5.775 5.22615C5.58516 5.38119 5.51456 5.64518 5.59568 5.87518C5.67676 6.10518 5.90248 6.2631 6.14608 6.2631Z" fill="#126BC0"/>
<path d="M1.32369 14.6741C1.31995 14.6741 1.31624 14.6738 1.3125 14.6738V15.1167C1.3125 16.8902 2.75015 18.3278 4.5236 18.3278H5.3302C5.32731 18.3513 5.3254 18.375 5.3254 18.3993V19.3947C5.3254 19.7176 5.58721 19.9794 5.91015 19.9794C6.23308 19.9794 6.49489 19.7176 6.49489 19.3947V18.3993C6.49489 18.375 6.49298 18.3513 6.4901 18.3278H13.5096C13.5068 18.3513 13.5048 18.375 13.5048 18.3993V19.3947C13.5048 19.7176 13.7667 19.9794 14.0896 19.9794C14.4125 19.9794 14.6743 19.7176 14.6743 19.3947V18.3993C14.6743 18.375 14.6724 18.3513 14.6695 18.3278H15.4761C17.2496 18.3278 18.6872 16.8902 18.6872 15.1167V14.6738C18.6835 14.6738 18.6798 14.6741 18.676 14.6741H1.32369Z" fill="#126BC0"/>
<path d="M18.6762 10.8573H2.36498V2.58898C2.36498 1.81754 2.9926 1.18996 3.76404 1.18996H5.04622C5.26281 1.18996 5.46946 1.28293 5.61311 1.44502L6.40872 2.34253C6.413 2.34736 6.41776 2.35157 6.42216 2.35625V2.7826H6.03237C5.7094 2.7826 5.44763 3.04437 5.44763 3.36735C5.44763 3.52882 5.51308 3.675 5.61888 3.78084C5.72468 3.88668 5.87087 3.95209 6.03237 3.95209H10.87C11.193 3.95209 11.4547 3.69032 11.4547 3.36735C11.4548 3.04441 11.193 2.7826 10.87 2.7826H10.4802V2.04949C10.4802 0.928927 9.57175 0.0205078 8.45119 0.0205078C7.7334 0.0205078 7.10316 0.393574 6.74245 0.95602L6.48828 0.669301C6.12278 0.256978 5.59717 0.0205078 5.04618 0.0205078H3.76404C2.34775 0.0205078 1.19549 1.17273 1.19549 2.58902V10.8636C0.524593 10.9281 0 11.4933 0 12.1811C0 12.9122 0.592696 13.505 1.32382 13.505H18.6761C19.4073 13.505 20 12.9123 20 12.1811C20 11.45 19.4073 10.8573 18.6762 10.8573Z" fill="#126BC0"/>
</g>
<defs>
<clipPath id="clip0">
<rect width="20" height="20" fill="white"/>
</clipPath>
</defs>
</svg>
