<svg width="20" height="20" viewBox="0 0 20 20" fill="none" xmlns="http://www.w3.org/2000/svg">
<g clip-path="url(#clip0)">
<path d="M17.8262 0H10.6523V4.19625L15.8039 9.34781H20.0002V2.17391C20.0002 0.975313 19.0248 0 17.8262 0Z" fill="#126BC0"/>
<path d="M10.0002 5.38851L5.38867 10L10.0002 14.6115L14.6116 10L10.0002 5.38851Z" fill="#126BC0"/>
<path d="M15.8039 10.6523L10.6523 15.8039V20.0002H17.8262C19.0248 20.0002 20.0002 19.0249 20.0002 17.8263V10.6523H15.8039Z" fill="#126BC0"/>
<path d="M2.17391 0C0.975312 0 0 0.975313 0 2.17391V9.34781H3.77648L9.34785 4.18234V0H2.17391Z" fill="#126BC0"/>
<path d="M3.77648 10.6523H0V17.8263C0 19.0249 0.975313 20.0002 2.17391 20.0002H9.34781V15.8178L3.77648 10.6523Z" fill="#126BC0"/>
</g>
<defs>
<clipPath id="clip0">
<rect width="20" height="20" fill="white"/>
</clipPath>
</defs>
</svg>
